<svg width="1500" height="523" xmlns="http://www.w3.org/2000/svg" version="1.1"><g transform="translate(0, 10)"><g class="links" fill="none" stroke-opacity="0.4"><path d="M5,326.9964871194379C152,326.9964871194379,152,278.7973263075725,299,278.7973263075725" stroke-width="5.6370023419203745" style="stroke: rgb(191, 105, 105);"></path><path d="M5,298.811475409836C152,298.811475409836,152,131.65466432474628,299,131.65466432474628" stroke-width="16.911007025761126" style="stroke: rgb(191, 105, 105);"></path><path d="M5,315.72248243559716C152,315.72248243559716,152,181.12500000000034,299,181.12500000000034" stroke-width="16.911007025761126" style="stroke: rgb(191, 105, 105);"></path><path d="M5,346.72599531615924C152,346.72599531615924,152,339.8064988290398,299,339.8064988290398" stroke-width="11.274004683840749" style="stroke: rgb(191, 105, 105);"></path><path d="M5,335.4519906323185C152,335.4519906323185,152,318.53249414519905,299,318.53249414519905" stroke-width="11.274004683840749" style="stroke: rgb(191, 105, 105);"></path><path d="M5,355.1814988290398C152,355.1814988290398,152,405.1814988290398,299,405.1814988290398" stroke-width="5.6370023419203745" style="stroke: rgb(191, 105, 105);"></path><path d="M5,207.03815378610466C152,207.03815378610466,152,210.8601678376271,299,210.8601678376271" stroke-width="22.559328649492585" style="stroke: rgb(191, 112, 105);"></path><path d="M5,159.09958040593293C152,159.09958040593293,152,109.09958040593284,299,109.09958040593284" stroke-width="28.19916081186573" style="stroke: rgb(191, 112, 105);"></path><path d="M5,257.79664324746295C152,257.79664324746295,152,297.25565964090566,299,297.25565964090566" stroke-width="11.279664324746292" style="stroke: rgb(191, 112, 105);"></path><path d="M5,246.5169789227167C152,246.5169789227167,152,270.33899297423915,299,270.33899297423915" stroke-width="11.279664324746292" style="stroke: rgb(191, 112, 105);"></path><path d="M5,184.4788251366121C152,184.4788251366121,152,161.38983216237347,299,161.38983216237347" stroke-width="22.559328649492585" style="stroke: rgb(191, 112, 105);"></path><path d="M5,229.59748243559727C152,229.59748243559727,152,243.41949648711972,299,243.41949648711972" stroke-width="22.559328649492585" style="stroke: rgb(191, 112, 105);"></path><path d="M5,266.2563914910227C152,266.2563914910227,152,358.2634172521468,299,358.2634172521468" stroke-width="5.639832162373146" style="stroke: rgb(191, 112, 105);"></path><path d="M5,271.89622365339585C152,271.89622365339585,152,373.90324941451996,299,373.90324941451996" stroke-width="5.639832162373146" style="stroke: rgb(191, 112, 105);"></path><path d="M5,277.536055815769C152,277.536055815769,152,389.54308157689314,299,389.54308157689314" stroke-width="5.639832162373146" style="stroke: rgb(191, 112, 105);"></path><path d="M304,267.5176619828262C451,267.5176619828262,451,148.5713309914131,598,148.5713309914131" stroke-width="5.6370023419203745" style="stroke: rgb(191, 119, 105);"></path><path d="M304,275.9759953161595C451,275.9759953161595,451,212.1370023419205,598,212.1370023419205" stroke-width="11.279664324746292" style="stroke: rgb(191, 119, 105);"></path><path d="M304,100.63841725214674C451,100.63841725214674,451,100.63841725214691,598,100.63841725214691" stroke-width="11.276834504293522" style="stroke: rgb(191, 126, 105);"></path><path d="M304,131.6518345042935C451,131.6518345042935,451,290.06850117096013,598,290.06850117096013" stroke-width="5.6370023419203745" style="stroke: rgb(191, 126, 105);"></path><path d="M304,114.73516783762682C451,114.73516783762682,451,192.39900468384087,598,192.39900468384087" stroke-width="16.916666666666668" style="stroke: rgb(191, 126, 105);"></path><path d="M304,126.01341725214674C451,126.01341725214674,451,230.59675058548015,598,230.59675058548015" stroke-width="5.639832162373146" style="stroke: rgb(191, 126, 105);"></path><path d="M304,137.29025175644026C451,137.29025175644026,451,311.3467505854801,598,311.3467505854801" stroke-width="5.639832162373146" style="stroke: rgb(191, 126, 105);"></path><path d="M304,169.84533567525403C451,169.84533567525403,451,236.23516783762693,598,236.23516783762693" stroke-width="5.6370023419203745" style="stroke: rgb(191, 132, 105);"></path><path d="M304,158.56850117096053C451,158.56850117096053,451,114.73516783762699,598,114.73516783762699" stroke-width="16.916666666666668" style="stroke: rgb(191, 132, 105);"></path><path d="M304,186.76200234192072C451,186.76200234192072,451,405.1814988290397,598,405.1814988290397" stroke-width="5.6370023419203745" style="stroke: rgb(191, 132, 105);"></path><path d="M304,175.4837529274008C451,175.4837529274008,451,263.1532494145201,598,263.1532494145201" stroke-width="5.639832162373146" style="stroke: rgb(191, 132, 105);"></path><path d="M304,181.12358508977394C451,181.12358508977394,451,326.9865827478533,598,326.9865827478533" stroke-width="5.639832162373146" style="stroke: rgb(191, 132, 105);"></path><path d="M304,336.9879976580796C451,336.9879976580796,451,274.4314988290399,598,274.4314988290399" stroke-width="5.6370023419203745" style="stroke: rgb(191, 139, 105);"></path><path d="M304,342.625C451,342.625,451,389.5444964871193,598,389.5444964871193" stroke-width="5.6370023419203745" style="stroke: rgb(191, 139, 105);"></path><path d="M304,318.53249414519905C451,318.53249414519905,451,157.02683450429367,598,157.02683450429367" stroke-width="11.274004683840749" style="stroke: rgb(191, 146, 105);"></path><path d="M304,405.1814988290398C451,405.1814988290398,451,171.1221701795474,598,171.1221701795474" stroke-width="5.6370023419203745" style="stroke: rgb(191, 153, 105);"></path><path d="M304,213.68008391881366C451,213.68008391881366,451,241.87358508977368,598,241.87358508977368" stroke-width="5.639832162373146" style="stroke: rgb(191, 160, 105);"></path><path d="M304,205.22033567525398C451,205.22033567525398,451,128.83333333333348,598,128.83333333333348" stroke-width="11.279664324746292" style="stroke: rgb(191, 160, 105);"></path><path d="M304,219.31991608118682C451,219.31991608118682,451,295.7069184231069,598,295.7069184231069" stroke-width="5.639832162373146" style="stroke: rgb(191, 160, 105);"></path><path d="M304,300.07557572209225C451,300.07557572209225,451,358.2662470725996,598,358.2662470725996" stroke-width="5.639832162373146" style="stroke: rgb(191, 167, 105);"></path><path d="M304,294.4357435597191C451,294.4357435597191,451,247.51341725214684,598,247.51341725214684" stroke-width="5.639832162373146" style="stroke: rgb(191, 167, 105);"></path><path d="M304,237.7796643247466C451,237.7796643247466,451,140.11299765807976,598,140.11299765807976" stroke-width="11.279664324746292" style="stroke: rgb(191, 174, 105);"></path><path d="M304,251.87924473067943C451,251.87924473067943,451,268.7930815768932,598,268.7930815768932" stroke-width="5.639832162373146" style="stroke: rgb(191, 174, 105);"></path><path d="M304,246.23941256830628C451,246.23941256830628,451,203.67725409836075,598,203.67725409836075" stroke-width="5.639832162373146" style="stroke: rgb(191, 174, 105);"></path><path d="M304,358.2634172521468C451,358.2634172521468,451,342.62641491022646,598,342.62641491022646" stroke-width="5.639832162373146" style="stroke: rgb(191, 180, 105);"></path><path d="M304,373.90324941451996C451,373.90324941451996,451,165.48375292740062,598,165.48375292740062" stroke-width="5.639832162373146" style="stroke: rgb(191, 187, 105);"></path><path d="M304,389.54308157689314C451,389.54308157689314,451,373.90607923497265,598,373.90607923497265" stroke-width="5.639832162373146" style="stroke: rgb(187, 191, 105);"></path><path d="M603,103.45691842310708C750,103.45691842310708,750,173.68291373926627,897,173.68291373926627" stroke-width="16.913836846213897" style="stroke: rgb(180, 191, 105);"></path><path d="M603,171.12217017954742C750,171.12217017954742,750,435.1814988290398,897,435.1814988290398" stroke-width="5.6370023419203745" style="stroke: rgb(180, 191, 105);"></path><path d="M603,159.84816549570667C750,159.84816549570667,750,388.2704918032787,897,388.2704918032787" stroke-width="5.6370023419203745" style="stroke: rgb(180, 191, 105);"></path><path d="M603,165.48516783762705C750,165.48516783762705,750,419.54449648711943,897,419.54449648711943" stroke-width="5.6370023419203745" style="stroke: rgb(180, 191, 105);"></path><path d="M603,154.2111631537863C750,154.2111631537863,750,356.9964871194379,897,356.9964871194379" stroke-width="5.6370023419203745" style="stroke: rgb(180, 191, 105);"></path><path d="M603,142.93291373926635C750,142.93291373926635,750,278.79874121779886,897,278.79874121779886" stroke-width="5.639832162373146" style="stroke: rgb(180, 191, 105);"></path><path d="M603,137.2930815768932C750,137.2930815768932,750,263.1589090554257,897,263.1589090554257" stroke-width="5.639832162373146" style="stroke: rgb(180, 191, 105);"></path><path d="M603,120.37358508977375C750,120.37358508977375,750,216.23941256830608,897,216.23941256830608" stroke-width="5.639832162373146" style="stroke: rgb(180, 191, 105);"></path><path d="M603,126.01341725214691C750,126.01341725214691,750,231.87924473067926,897,231.87924473067926" stroke-width="5.639832162373146" style="stroke: rgb(180, 191, 105);"></path><path d="M603,114.73375292740062C750,114.73375292740062,750,200.5995804059329,897,200.5995804059329" stroke-width="5.639832162373146" style="stroke: rgb(180, 191, 105);"></path><path d="M603,148.5727459016395C750,148.5727459016395,750,341.35806986729125,897,341.35806986729125" stroke-width="5.639832162373146" style="stroke: rgb(180, 191, 105);"></path><path d="M603,131.65324941452005C750,131.65324941452005,750,247.51907689305244,897,247.51907689305244" stroke-width="5.639832162373146" style="stroke: rgb(180, 191, 105);"></path><path d="M603,236.23516783762693C750,236.23516783762693,750,101.65466432474646,897,101.65466432474646" stroke-width="16.916666666666668" style="stroke: rgb(174, 191, 105);"></path><path d="M603,247.5134172521468C750,247.5134172521468,750,325.7182377049182,897,325.7182377049182" stroke-width="5.639832162373146" style="stroke: rgb(174, 191, 105);"></path><path d="M603,405.1814988290397C750,405.1814988290397,750,372.6334894613583,897,372.6334894613583" stroke-width="5.6370023419203745" style="stroke: rgb(167, 191, 105);"></path><path d="M603,292.8884172521467C750,292.8884172521467,750,132.66808157689323,897,132.66808157689323" stroke-width="11.276834504293522" style="stroke: rgb(160, 191, 105);"></path><path d="M603,268.7916666666668C750,268.7916666666668,750,118.57133099141313,897,118.57133099141313" stroke-width="16.916666666666668" style="stroke: rgb(153, 191, 105);"></path><path d="M603,389.5444964871193C750,389.5444964871193,750,403.90749414519905,897,403.90749414519905" stroke-width="5.6370023419203745" style="stroke: rgb(146, 191, 105);"></path><path d="M603,198.038836846214C750,198.038836846214,750,79.09816549570665,897,79.09816549570665" stroke-width="28.19633099141296" style="stroke: rgb(139, 191, 105);"></path><path d="M603,214.95691842310706C750,214.95691842310706,750,310.0784055425451,897,310.0784055425451" stroke-width="5.639832162373146" style="stroke: rgb(139, 191, 105);"></path><path d="M603,358.2662470725996C750,358.2662470725996,750,152.40607923497288,897,152.40607923497288" stroke-width="5.639832162373146" style="stroke: rgb(132, 191, 105);"></path><path d="M603,326.9865827478533C750,326.9865827478533,750,294.43857338017204,897,294.43857338017204" stroke-width="5.639832162373146" style="stroke: rgb(126, 191, 105);"></path><path d="M603,342.62641491022646C750,342.62641491022646,750,146.76624707259973,897,146.76624707259973" stroke-width="5.639832162373146" style="stroke: rgb(119, 191, 105);"></path><path d="M603,311.3467505854801C750,311.3467505854801,750,141.12641491022657,897,141.12641491022657" stroke-width="5.639832162373146" style="stroke: rgb(112, 191, 105);"></path><path d="M603,373.90607923497265C750,373.90607923497265,750,184.9597482435598,897,184.9597482435598" stroke-width="5.639832162373146" style="stroke: rgb(105, 191, 105);"></path><path d="M902,173.68432864949267C1049,173.68432864949267,1049,72.28600702576097,1196,72.28600702576097" stroke-width="5.6370023419203745" style="stroke: rgb(105, 191, 112);"></path><path d="M902,184.9611631537862C1049,184.9611631537862,1049,468.9074941451991,1196,468.9074941451991" stroke-width="5.6370023419203745" style="stroke: rgb(105, 191, 112);"></path><path d="M902,179.32274590163942C1049,179.32274590163942,1049,390.71823770491807,1196,390.71823770491807" stroke-width="5.639832162373146" style="stroke: rgb(105, 191, 112);"></path><path d="M902,168.0459113973459C1049,168.0459113973459,1049,8.456918423106835,1196,8.456918423106835" stroke-width="5.639832162373146" style="stroke: rgb(105, 191, 112);"></path><path d="M902,435.1814988290398C1049,435.1814988290398,1049,421.9964871194378,1196,421.9964871194378" stroke-width="5.6370023419203745" style="stroke: rgb(105, 191, 119);"></path><path d="M902,152.4074941451993C1049,152.4074941451993,1049,500.18149882903987,1196,500.18149882903987" stroke-width="5.6370023419203745" style="stroke: rgb(105, 191, 126);"></path><path d="M902,67.81850117096036C1049,67.81850117096036,1049,2.8185011709600736,1196,2.8185011709600736" stroke-width="5.6370023419203745" style="stroke: rgb(105, 191, 126);"></path><path d="M902,76.27400468384093C1049,76.27400468384093,1049,53.83050351288039,1196,53.83050351288039" stroke-width="11.274004683840749" style="stroke: rgb(105, 191, 126);"></path><path d="M902,90.37075526932101C1049,90.37075526932101,1049,109.2012587822014,1196,109.2012587822014" stroke-width="5.639832162373146" style="stroke: rgb(105, 191, 126);"></path><path d="M902,101.65041959406732C1049,101.65041959406732,1049,156.12075526932097,1196,156.12075526932097" stroke-width="5.639832162373146" style="stroke: rgb(105, 191, 126);"></path><path d="M902,84.73092310694787C1049,84.73092310694787,1049,93.56142661982811,1196,93.56142661982811" stroke-width="5.639832162373146" style="stroke: rgb(105, 191, 126);"></path><path d="M902,141.12924473067937C1049,141.12924473067937,1049,328.1589090554258,1196,328.1589090554258" stroke-width="5.639832162373146" style="stroke: rgb(105, 191, 126);"></path><path d="M902,129.84958040593307C1049,129.84958040593307,1049,296.8792447306796,1196,296.8792447306796" stroke-width="5.639832162373146" style="stroke: rgb(105, 191, 126);"></path><path d="M902,135.48941256830622C1049,135.48941256830622,1049,312.5190768930527,1196,312.5190768930527" stroke-width="5.639832162373146" style="stroke: rgb(105, 191, 126);"></path><path d="M902,112.93008391881362C1049,112.93008391881362,1049,203.0402517564405,1196,203.0402517564405" stroke-width="5.639832162373146" style="stroke: rgb(105, 191, 126);"></path><path d="M902,124.20974824355993C1049,124.20974824355993,1049,281.2394125683065,1196,281.2394125683065" stroke-width="5.639832162373146" style="stroke: rgb(105, 191, 126);"></path><path d="M902,146.76907689305253C1049,146.76907689305253,1049,343.79874121779886,1196,343.79874121779886" stroke-width="5.639832162373146" style="stroke: rgb(105, 191, 126);"></path><path d="M902,96.01058743169416C1049,96.01058743169416,1049,124.84109094457462,1196,124.84109094457462" stroke-width="5.639832162373146" style="stroke: rgb(105, 191, 126);"></path><path d="M902,118.56991608118678C1049,118.56991608118678,1049,249.95974824356006,1196,249.95974824356006" stroke-width="5.639832162373146" style="stroke: rgb(105, 191, 126);"></path><path d="M902,107.29025175644047C1049,107.29025175644047,1049,187.40041959406733,1196,187.40041959406733" stroke-width="5.639832162373146" style="stroke: rgb(105, 191, 126);"></path><path d="M902,388.2704918032787C1049,388.2704918032787,1049,453.27049180327873,1196,453.27049180327873" stroke-width="5.6370023419203745" style="stroke: rgb(105, 191, 132);"></path><path d="M902,372.6334894613583C1049,372.6334894613583,1049,77.92300936768135,1196,77.92300936768135" stroke-width="5.6370023419203745" style="stroke: rgb(105, 191, 139);"></path><path d="M902,419.54449648711943C1049,419.54449648711943,1049,437.6334894613583,1196,437.6334894613583" stroke-width="5.6370023419203745" style="stroke: rgb(105, 191, 146);"></path><path d="M902,356.9964871194379C1049,356.9964871194379,1049,35.37499999999991,1196,35.37499999999991" stroke-width="5.6370023419203745" style="stroke: rgb(105, 191, 153);"></path><path d="M902,403.90749414519905C1049,403.90749414519905,1049,484.5444964871195,1196,484.5444964871195" stroke-width="5.6370023419203745" style="stroke: rgb(105, 191, 160);"></path><path d="M902,278.79874121779886C1049,278.79874121779886,1049,14.096750585479981,1196,14.096750585479981" stroke-width="5.639832162373146" style="stroke: rgb(105, 191, 167);"></path><path d="M902,263.1589090554257C1049,263.1589090554257,1049,234.31991608118688,1196,234.31991608118688" stroke-width="5.639832162373146" style="stroke: rgb(105, 191, 174);"></path><path d="M902,216.23941256830608C1049,216.23941256830608,1049,406.35806986729114,1196,406.35806986729114" stroke-width="5.639832162373146" style="stroke: rgb(105, 191, 180);"></path><path d="M902,310.0784055425451C1049,310.0784055425451,1049,140.48092310694778,1196,140.48092310694778" stroke-width="5.639832162373146" style="stroke: rgb(105, 191, 187);"></path><path d="M902,294.43857338017204C1049,294.43857338017204,1049,218.6800839188137,1196,218.6800839188137" stroke-width="5.639832162373146" style="stroke: rgb(105, 187, 191);"></path><path d="M902,325.7182377049182C1049,325.7182377049182,1049,265.5995804059333,1196,265.5995804059333" stroke-width="5.639832162373146" style="stroke: rgb(105, 180, 191);"></path><path d="M902,231.87924473067926C1049,231.87924473067926,1049,359.43857338017193,1196,359.43857338017193" stroke-width="5.639832162373146" style="stroke: rgb(105, 174, 191);"></path><path d="M902,200.5995804059329C1049,200.5995804059329,1049,29.736582747853145,1196,29.736582747853145" stroke-width="5.639832162373146" style="stroke: rgb(105, 167, 191);"></path><path d="M902,341.35806986729125C1049,341.35806986729125,1049,375.078405542545,1196,375.078405542545" stroke-width="5.639832162373146" style="stroke: rgb(105, 160, 191);"></path><path d="M902,247.51907689305244C1049,247.51907689305244,1049,171.76058743169415,1196,171.76058743169415" stroke-width="5.639832162373146" style="stroke: rgb(105, 153, 191);"></path><path d="M1201,75.10450819672116C1348,75.10450819672116,1348,163.18784153005467,1495,163.18784153005467" stroke-width="11.274004683840749" style="stroke: rgb(105, 146, 191);"></path><path d="M1201,421.9964871194378C1348,421.9964871194378,1348,228.04166666666677,1495,228.04166666666677" stroke-width="5.6370023419203745" style="stroke: rgb(105, 139, 191);"></path><path d="M1201,500.18149882903987C1348,500.18149882903987,1348,250.5896760343483,1495,250.5896760343483" stroke-width="5.6370023419203745" style="stroke: rgb(105, 132, 191);"></path><path d="M1201,453.27049180327873C1348,453.27049180327873,1348,239.31567135050753,1495,239.31567135050753" stroke-width="5.6370023419203745" style="stroke: rgb(105, 126, 191);"></path><path d="M1201,5.638417252146647C1348,5.638417252146647,1348,140.63841725214675,1495,140.63841725214675" stroke-width="11.276834504293522" style="stroke: rgb(105, 119, 191);"></path><path d="M1201,14.096750585479981C1348,14.096750585479981,1348,266.2280932864949,1495,266.2280932864949" stroke-width="5.639832162373146" style="stroke: rgb(105, 119, 191);"></path><path d="M1201,53.83050351288039C1348,53.83050351288039,1348,151.9138368462139,1495,151.9138368462139" stroke-width="11.274004683840749" style="stroke: rgb(105, 112, 191);"></path><path d="M1201,437.6334894613583C1348,437.6334894613583,1348,233.67866900858715,1495,233.67866900858715" stroke-width="5.6370023419203745" style="stroke: rgb(105, 105, 191);"></path><path d="M1201,32.55508391881333C1348,32.55508391881333,1348,274.68642661982824,1495,274.68642661982824" stroke-width="11.276834504293522" style="stroke: rgb(112, 105, 191);"></path><path d="M1201,484.5444964871195C1348,484.5444964871195,1348,365.1814988290398,1495,365.1814988290398" stroke-width="5.6370023419203745" style="stroke: rgb(119, 105, 191);"></path><path d="M1201,468.9074941451991C1348,468.9074941451991,1348,244.9526736924279,1495,244.9526736924279" stroke-width="5.6370023419203745" style="stroke: rgb(126, 105, 191);"></path><path d="M1201,109.2012587822014C1348,109.2012587822014,1348,171.6447599531616,1495,171.6447599531616" stroke-width="5.639832162373146" style="stroke: rgb(132, 105, 191);"></path><path d="M1201,156.12075526932097C1348,156.12075526932097,1348,288.7845921155347,1495,288.7845921155347" stroke-width="5.639832162373146" style="stroke: rgb(139, 105, 191);"></path><path d="M1201,234.31991608118688C1348,234.31991608118688,1348,300.06425644028093,1495,300.06425644028093" stroke-width="5.639832162373146" style="stroke: rgb(146, 105, 191);"></path><path d="M1201,93.56142661982811C1348,93.56142661982811,1348,283.14475995316155,1495,283.14475995316155" stroke-width="5.639832162373146" style="stroke: rgb(153, 105, 191);"></path><path d="M1201,328.1589090554258C1348,328.1589090554258,1348,222.40324941452,1495,222.40324941452" stroke-width="5.639832162373146" style="stroke: rgb(160, 105, 191);"></path><path d="M1201,296.8792447306796C1348,296.8792447306796,1348,211.12358508977368,1495,211.12358508977368" stroke-width="5.639832162373146" style="stroke: rgb(167, 105, 191);"></path><path d="M1201,312.5190768930527C1348,312.5190768930527,1348,216.76341725214684,1495,216.76341725214684" stroke-width="5.639832162373146" style="stroke: rgb(174, 105, 191);"></path><path d="M1201,390.71823770491807C1348,390.71823770491807,1348,343.9032494145199,1495,343.9032494145199" stroke-width="5.639832162373146" style="stroke: rgb(180, 105, 191);"></path><path d="M1201,406.35806986729114C1348,406.35806986729114,1348,349.54308157689303,1495,349.54308157689303" stroke-width="5.639832162373146" style="stroke: rgb(187, 105, 191);"></path><path d="M1201,140.48092310694778C1348,140.48092310694778,1348,182.92442427790792,1495,182.92442427790792" stroke-width="5.639832162373146" style="stroke: rgb(191, 105, 187);"></path><path d="M1201,218.6800839188137C1348,218.6800839188137,1348,199.84392076502738,1495,199.84392076502738" stroke-width="5.639832162373146" style="stroke: rgb(191, 105, 180);"></path><path d="M1201,203.0402517564405C1348,203.0402517564405,1348,194.20408860265422,1495,194.20408860265422" stroke-width="5.639832162373146" style="stroke: rgb(191, 105, 174);"></path><path d="M1201,281.2394125683065C1348,281.2394125683065,1348,205.48375292740053,1495,205.48375292740053" stroke-width="5.639832162373146" style="stroke: rgb(191, 105, 167);"></path><path d="M1201,265.5995804059333C1348,265.5995804059333,1348,305.70408860265405,1495,305.70408860265405" stroke-width="5.639832162373146" style="stroke: rgb(191, 105, 160);"></path><path d="M1201,343.79874121779886C1348,343.79874121779886,1348,311.3439207650272,1495,311.3439207650272" stroke-width="5.639832162373146" style="stroke: rgb(191, 105, 153);"></path><path d="M1201,124.84109094457462C1348,124.84109094457462,1348,177.28459211553476,1495,177.28459211553476" stroke-width="5.639832162373146" style="stroke: rgb(191, 105, 146);"></path><path d="M1201,359.43857338017193C1348,359.43857338017193,1348,316.9837529274003,1495,316.9837529274003" stroke-width="5.639832162373146" style="stroke: rgb(191, 105, 139);"></path><path d="M1201,249.95974824356006C1348,249.95974824356006,1348,338.2634172521468,1495,338.2634172521468" stroke-width="5.639832162373146" style="stroke: rgb(191, 105, 132);"></path><path d="M1201,187.40041959406733C1348,187.40041959406733,1348,294.4244242779078,1495,294.4244242779078" stroke-width="5.639832162373146" style="stroke: rgb(191, 105, 126);"></path><path d="M1201,375.078405542545C1348,375.078405542545,1348,322.6235850897734,1495,322.6235850897734" stroke-width="5.639832162373146" style="stroke: rgb(191, 105, 119);"></path><path d="M1201,171.76058743169415C1348,171.76058743169415,1348,188.56425644028107,1495,188.56425644028107" stroke-width="5.639832162373146" style="stroke: rgb(191, 105, 112);"></path></g><g class="nodes" font-family="Arial, Helvetica" font-size="10"><g><rect x="0" y="290.35597189695545" height="67.64402810304443" width="5" fill="#000"></rect><text x="11" y="324.17798594847767" dy="0.35em" text-anchor="start">1992</text></g><g><rect x="0" y="145.00000000000006" height="135.35597189695542" width="5" fill="#000"></rect><text x="11" y="212.67798594847778" dy="0.35em" text-anchor="start">1993</text></g><g><rect x="1495" y="135" height="118.40817720530836" width="5" fill="#000"></rect><text x="1489" y="194.20408860265417" dy="0.35em" text-anchor="end">CONCEDIDA</text></g><g><rect x="1495" y="335.4435011709602" height="16.91949648711943" width="5" fill="#000"></rect><text x="1489" y="343.9032494145199" dy="0.35em" text-anchor="end">CONCEDIDA </text></g><g><rect x="1495" y="362.3629976580796" height="5.637002341920379" width="5" fill="#000"></rect><text x="1489" y="365.1814988290398" dy="0.35em" text-anchor="end">INEXEQUIBLES</text></g><g><rect x="1495" y="263.40817720530833" height="62.035323965651855" width="5" fill="#000"></rect><text x="1489" y="294.42583918813426" dy="0.35em" text-anchor="end">NEGADA</text></g><g><rect x="299" y="94.99999999999997" height="45.110167837627216" width="5" fill="#000"></rect><text x="293" y="117.55508391881358" dy="0.35em" text-anchor="end">Alejandro Martínez Caballero</text></g><g><rect x="299" y="355.4435011709602" height="5.639832162373182" width="5" fill="#000"></rect><text x="293" y="358.2634172521468" dy="0.35em" text-anchor="end">Antonio Barrera Carbonell</text></g><g><rect x="299" y="291.61582747853254" height="11.279664324746136" width="5" fill="#000"></rect><text x="293" y="297.2556596409056" dy="0.35em" text-anchor="end">Carlos Gaviria Díaz</text></g><g><rect x="299" y="312.8954918032787" height="11.274004683840758" width="5" fill="#000"></rect><text x="293" y="318.53249414519905" dy="0.35em" text-anchor="end">Ciro Angarita Baron</text></g><g><rect x="299" y="150.1101678376272" height="39.47033567525364" width="5" fill="#000"></rect><text x="293" y="169.845335675254" dy="0.35em" text-anchor="end">Eduardo Cifuentes Muñoz</text></g><g><rect x="299" y="264.699160811866" height="16.916666666666515" width="5" fill="#000"></rect><text x="293" y="273.1574941451993" dy="0.35em" text-anchor="end">Fabio Morón Díaz</text></g><g><rect x="299" y="199.58050351288082" height="22.559328649492613" width="5" fill="#000"></rect><text x="293" y="210.86016783762713" dy="0.35em" text-anchor="end">Hernando Herrera Vergara</text></g><g><rect x="299" y="402.3629976580796" height="5.637002341920379" width="5" fill="#000"></rect><text x="293" y="405.1814988290398" dy="0.35em" text-anchor="end">Jaime Sanin Greiffenstein</text></g><g><rect x="299" y="371.08333333333337" height="5.639832162373182" width="5" fill="#000"></rect><text x="293" y="373.90324941451996" dy="0.35em" text-anchor="end">Jorge Arango Mejía</text></g><g><rect x="299" y="386.72316549570655" height="5.639832162373068" width="5" fill="#000"></rect><text x="293" y="389.5430815768931" dy="0.35em" text-anchor="end">José Gregorio Hernández Galindo    &lt;strong&gt;Magistrado Ponente&lt;/strong&gt;:Carlos Gaviria Díaz</text></g><g><rect x="299" y="334.16949648711943" height="11.274004683840758" width="5" fill="#000"></rect><text x="293" y="339.8064988290398" dy="0.35em" text-anchor="end">Simon Rodriguez Rodriguez</text></g><g><rect x="299" y="232.13983216237344" height="22.559328649492613" width="5" fill="#000"></rect><text x="293" y="243.41949648711974" dy="0.35em" text-anchor="end">Vladimiro Naranjo Mesa</text></g><g><rect x="598" y="386.7259953161591" height="5.637002341920379" width="5" fill="#000"></rect><text x="592" y="389.5444964871193" dy="0.35em" text-anchor="end">DEC 1272/90</text></g><g><rect x="598" y="95.00000000000014" height="78.94067135050739" width="5" fill="#000"></rect><text x="592" y="134.47033567525384" dy="0.35em" text-anchor="end">DERECHO A LA SALUD</text></g><g><rect x="598" y="227.7768345042936" height="22.556498829039867" width="5" fill="#000"></rect><text x="592" y="239.05508391881352" dy="0.35em" text-anchor="end">DERECHO A LA SEGURIDAD SOCIAL</text></g><g><rect x="598" y="183.94067135050753" height="33.83616315378606" width="5" fill="#000"></rect><text x="592" y="200.85875292740056" dy="0.35em" text-anchor="end">DERECHO A LA VIDA</text></g><g><rect x="598" y="260.3333333333335" height="16.91666666666646" width="5" fill="#000"></rect><text x="592" y="268.79166666666674" dy="0.35em" text-anchor="end">DERECHO AL AMBIENTE SANO</text></g><g><rect x="598" y="355.446330991413" height="5.6398321623730965" width="5" fill="#000"></rect><text x="592" y="358.2662470725995" dy="0.35em" text-anchor="end">DERECHO AL AMBIENTO SANO</text></g><g><rect x="598" y="308.5268345042935" height="5.639832162373182" width="5" fill="#000"></rect><text x="592" y="311.3467505854801" dy="0.35em" text-anchor="end">DERECHO DE PARTICIPACION CIUDADANA</text></g><g><rect x="598" y="287.24999999999994" height="11.27683450429356" width="5" fill="#000"></rect><text x="592" y="292.8884172521467" dy="0.35em" text-anchor="end">DERECHOS DE LOS INTERNOS</text></g><g><rect x="598" y="324.1666666666667" height="5.639832162373182" width="5" fill="#000"></rect><text x="592" y="326.9865827478533" dy="0.35em" text-anchor="end">PARTICIPACION COMUNITARIA EN EL SECTOR SALUD</text></g><g><rect x="598" y="402.3629976580795" height="5.637002341920379" width="5" fill="#000"></rect><text x="592" y="405.1814988290397" dy="0.35em" text-anchor="end">SERVICIO DE SALUD</text></g><g><rect x="598" y="339.80649882903987" height="5.639832162373125" width="5" fill="#000"></rect><text x="592" y="342.62641491022646" dy="0.35em" text-anchor="end">SERVICIO MILITAR</text></g><g><rect x="598" y="371.08616315378606" height="5.639832162373068" width="5" fill="#000"></rect><text x="592" y="373.9060792349726" dy="0.35em" text-anchor="end">SERVICIOS PUBLICOS DOMICILIARIOS</text></g><g><rect x="897" y="291.61865729898545" height="5.639832162373068" width="5" fill="#000"></rect><text x="891" y="294.438573380172" dy="0.35em" text-anchor="end">DEMOCRACIA PARTICIPATIVA</text></g><g><rect x="897" y="197.77966432474634" height="5.639832162373182" width="5" fill="#000"></rect><text x="891" y="200.59958040593293" dy="0.35em" text-anchor="end">DERECHO A LA ASISTENCIA MEDICA</text></g><g><rect x="897" y="65.00000000000017" height="90.22599531615916" width="5" fill="#000"></rect><text x="891" y="110.11299765807975" dy="0.35em" text-anchor="end">DERECHO A LA SALUD</text></g><g><rect x="897" y="165.22599531615933" height="22.553669008587008" width="5" fill="#000"></rect><text x="891" y="176.50282982045283" dy="0.35em" text-anchor="end">DERECHO A LA VIDA</text></g><g><rect x="897" y="213.41949648711952" height="5.639832162373182" width="5" fill="#000"></rect><text x="891" y="216.2394125683061" dy="0.35em" text-anchor="end">DERECHO AL AMBIENTE SANO</text></g><g><rect x="897" y="229.0593286494927" height="5.639832162373182" width="5" fill="#000"></rect><text x="891" y="231.8792447306793" dy="0.35em" text-anchor="end">DERECHO AL TRABAJO</text></g><g><rect x="897" y="244.69916081186588" height="5.639832162373182" width="5" fill="#000"></rect><text x="891" y="247.51907689305247" dy="0.35em" text-anchor="end">DERECHOS DE LOS NIÑOS</text></g><g><rect x="897" y="354.1779859484777" height="5.637002341920379" width="5" fill="#000"></rect><text x="891" y="356.9964871194379" dy="0.35em" text-anchor="end">DERECHOS DE LOS PACIENTES</text></g><g><rect x="897" y="369.8149882903981" height="5.637002341920379" width="5" fill="#000"></rect><text x="891" y="372.6334894613583" dy="0.35em" text-anchor="end">DERECHOS DEL ENFERMO</text></g><g><rect x="897" y="260.3389929742391" height="5.639832162373182" width="5" fill="#000"></rect><text x="891" y="263.1589090554257" dy="0.35em" text-anchor="end">DETERIORO Y ABANDONO DE VIA PUBLICA</text></g><g><rect x="897" y="385.4519906323185" height="5.637002341920379" width="5" fill="#000"></rect><text x="891" y="388.2704918032787" dy="0.35em" text-anchor="end">DIGNIDAD HUMANA</text></g><g><rect x="897" y="307.2584894613585" height="5.639832162373068" width="5" fill="#000"></rect><text x="891" y="310.07840554254506" dy="0.35em" text-anchor="end">GRATUIDAD EN EL SERVICIO PUBLICO DE SALUD</text></g><g><rect x="897" y="432.3629976580796" height="5.637002341920265" width="5" fill="#000"></rect><text x="891" y="435.18149882903975" dy="0.35em" text-anchor="end">LIBERTAD DE LOCOMOCION</text></g><g><rect x="897" y="275.9788251366123" height="5.639832162373182" width="5" fill="#000"></rect><text x="891" y="278.79874121779886" dy="0.35em" text-anchor="end">PRESTACION MEDICO ASISTENCIAL DE PERSONA ESPECIAL</text></g><g><rect x="897" y="401.08899297423886" height="5.637002341920379" width="5" fill="#000"></rect><text x="891" y="403.90749414519905" dy="0.35em" text-anchor="end">REFORMA DEL SERVICIO NAL DE SALUD</text></g><g><rect x="897" y="322.8983216237316" height="5.639832162373068" width="5" fill="#000"></rect><text x="891" y="325.7182377049181" dy="0.35em" text-anchor="end">SERVICIO DE SALUD</text></g><g><rect x="897" y="416.72599531615924" height="5.637002341920379" width="5" fill="#000"></rect><text x="891" y="419.54449648711943" dy="0.35em" text-anchor="end">SERVICIO MILITAR</text></g><g><rect x="897" y="338.53815378610466" height="5.639832162373068" width="5" fill="#000"></rect><text x="891" y="341.3580698672912" dy="0.35em" text-anchor="end">SERVICIOS HOSPITALARIOS</text></g><g><rect x="1196" y="122.02117486338804" height="5.639832162373182" width="5" fill="#000"></rect><text x="1190" y="124.84109094457463" dy="0.35em" text-anchor="end">ACCIONES POPULARES</text></g><g><rect x="1196" y="325.3389929742392" height="5.639832162373068" width="5" fill="#000"></rect><text x="1190" y="328.15890905542574" dy="0.35em" text-anchor="end">ACUEDUCTO DE FUNZA</text></g><g><rect x="1196" y="106.38134270101483" height="5.63983216237321" width="5" fill="#000"></rect><text x="1190" y="109.20125878220144" dy="0.35em" text-anchor="end">CAJA NACIONAL DE PREVISION (CORDOBA)</text></g><g><rect x="1196" y="450.45199063231854" height="5.637002341920379" width="5" fill="#000"></rect><text x="1190" y="453.27049180327873" dy="0.35em" text-anchor="end">CAPRECOM</text></g><g><rect x="1196" y="137.66100702576122" height="5.639832162373182" width="5" fill="#000"></rect><text x="1190" y="140.4809231069478" dy="0.35em" text-anchor="end">CLINICA SANTA FE</text></g><g><rect x="1196" y="153.3008391881344" height="5.639832162373182" width="5" fill="#000"></rect><text x="1190" y="156.120755269321" dy="0.35em" text-anchor="end">CUSTODIA DE UN MENOR (B/QUILLA)</text></g><g><rect x="1196" y="168.94067135050759" height="5.639832162373182" width="5" fill="#000"></rect><text x="1190" y="171.76058743169418" dy="0.35em" text-anchor="end">DAÑO CONSUMADO</text></g><g><rect x="1196" y="466.0889929742389" height="5.637002341920379" width="5" fill="#000"></rect><text x="1190" y="468.9074941451991" dy="0.35em" text-anchor="end">DERECHO A LA ASISTENCIA PUBLICA</text></g><g><rect x="1196" y="184.58050351288077" height="5.639832162373182" width="5" fill="#000"></rect><text x="1190" y="187.40041959406736" dy="0.35em" text-anchor="end">DERECHO A LA INTEGRIDAD FISICA</text></g><g><rect x="1196" y="-1.1368683772161603e-13" height="16.916666666666686" width="5" fill="#000"></rect><text x="1190" y="8.45833333333323" dy="0.35em" text-anchor="end">DERECHO A LA SALUD</text></g><g><rect x="1196" y="434.8149882903981" height="5.637002341920436" width="5" fill="#000"></rect><text x="1190" y="437.6334894613583" dy="0.35em" text-anchor="end">DERECHO A LA SEGURIDAD SOCIAL</text></g><g><rect x="1196" y="90.74151053864153" height="5.639832162373295" width="5" fill="#000"></rect><text x="1190" y="93.56142661982818" dy="0.35em" text-anchor="end">DERECHO A LA VIDA</text></g><g><rect x="1196" y="200.22033567525395" height="5.639832162373182" width="5" fill="#000"></rect><text x="1190" y="203.04025175644054" dy="0.35em" text-anchor="end">DERECHO AL TRABAJO</text></g><g><rect x="1196" y="340.9788251366123" height="5.639832162373068" width="5" fill="#000"></rect><text x="1190" y="343.7987412177988" dy="0.35em" text-anchor="end">DERECHO DE PROPIEDAD</text></g><g><rect x="1196" y="215.86016783762713" height="5.639832162373182" width="5" fill="#000"></rect><text x="1190" y="218.68008391881372" dy="0.35em" text-anchor="end">DERTECHO A LA IGUALDAD</text></g><g><rect x="1196" y="231.5000000000003" height="5.639832162373182" width="5" fill="#000"></rect><text x="1190" y="234.3199160811869" dy="0.35em" text-anchor="end">DETERIORO Y ABANDONO DE VIA PUBLICA</text></g><g><rect x="1196" y="481.7259953161593" height="5.637002341920379" width="5" fill="#000"></rect><text x="1190" y="484.5444964871195" dy="0.35em" text-anchor="end">FACULTADES EXTRAORDINARIAS</text></g><g><rect x="1196" y="278.4194964871199" height="5.639832162373125" width="5" fill="#000"></rect><text x="1190" y="281.2394125683064" dy="0.35em" text-anchor="end">INCAPACIDAD LABORAL POR ACCIDENTE (RAYO)</text></g><g><rect x="1196" y="26.916666666666572" height="11.276834504293447" width="5" fill="#000"></rect><text x="1190" y="32.555083918813295" dy="0.35em" text-anchor="end">ISS</text></g><g><rect x="1196" y="419.1779859484776" height="5.637002341920493" width="5" fill="#000"></rect><text x="1190" y="421.99648711943786" dy="0.35em" text-anchor="end">LIBERTAD DE RESIDENCIA</text></g><g><rect x="1196" y="48.19350117096002" height="11.274004683840758" width="5" fill="#000"></rect><text x="1190" y="53.8305035128804" dy="0.35em" text-anchor="end">MEDIO DE DEFENSA JUDICIAL</text></g><g><rect x="1196" y="356.61865729898534" height="5.639832162373068" width="5" fill="#000"></rect><text x="1190" y="359.4385733801719" dy="0.35em" text-anchor="end">OMISION DE AUTORIDAD PUBLICA</text></g><g><rect x="1196" y="372.2584894613584" height="5.639832162373068" width="5" fill="#000"></rect><text x="1190" y="375.07840554254494" dy="0.35em" text-anchor="end">PACIENTES TERMINALES</text></g><g><rect x="1196" y="247.1398321623735" height="5.639832162373182" width="5" fill="#000"></rect><text x="1190" y="249.95974824356009" dy="0.35em" text-anchor="end">PENSION DE INVALIDEZ</text></g><g><rect x="1196" y="497.3629976580797" height="5.637002341920379" width="5" fill="#000"></rect><text x="1190" y="500.18149882903987" dy="0.35em" text-anchor="end">PENSION DE VEJEZ</text></g><g><rect x="1196" y="387.8983216237315" height="5.639832162373068" width="5" fill="#000"></rect><text x="1190" y="390.718237704918" dy="0.35em" text-anchor="end">PRESTACION MEDICO ASISTENCIAL</text></g><g><rect x="1196" y="262.7796643247467" height="5.639832162373182" width="5" fill="#000"></rect><text x="1190" y="265.5995804059333" dy="0.35em" text-anchor="end">PRESTACIONES MEDICO-ASISTENCIALES PARA PENSIONADOS</text></g><g><rect x="1196" y="309.69916081186614" height="5.6398321623730965" width="5" fill="#000"></rect><text x="1190" y="312.51907689305267" dy="0.35em" text-anchor="end">PROQUIMHUL</text></g><g><rect x="1196" y="69.46750585480078" height="11.274004683840758" width="5" fill="#000"></rect><text x="1190" y="75.10450819672116" dy="0.35em" text-anchor="end">SIDA</text></g><g><rect x="1196" y="294.059328649493" height="5.639832162373125" width="5" fill="#000"></rect><text x="1190" y="296.8792447306796" dy="0.35em" text-anchor="end">SINDICATO MINEROS DE ANTIOQUIA</text></g><g><rect x="1196" y="403.53815378610454" height="5.639832162373068" width="5" fill="#000"></rect><text x="1190" y="406.3580698672911" dy="0.35em" text-anchor="end">SUSPENSION DE LICENCIAS DE CONSTRUCCION</text></g></g></g></svg>